<svg version="1.1" xmlns="http://www.w3.org/2000/svg" viewBox="-16.43487368703736 -31.71141622440827 32.86974737407472 55.69803419969935" fill="none" stroke="black" stroke-width="0.6%" vector-effect="non-scaling-stroke">
    <path d="M -6.85994 14.89274 L -1.71499 22.98662 L -1.71499 0.60434" />
    <path d="M -6.85994 14.89274 L -6.85994 -7.48954" />
    <path d="M -1.71499 22.98662 L 6.85994 18.13029 L 6.85994 -0.58276" />
    <path d="M -15.43487 -20.97933 L 0 3.3023 L 0 2.31161 L 15.43487 -6.42978 L 0 -30.71142 L -15.43487 -21.97003 L 0 2.31161" />
    <path d="M 0 3.3023 L 15.43487 -5.43909 L 15.43487 -6.42978" />
    <path d="M -15.43487 -20.97933 L -15.43487 -21.97003" />
    <path d="M 6.85994 -12.58113 L -1.71499 -7.7248 L -1.71499 -10.03641 L 6.85994 -14.89274 L 1.71499 -22.98662 L -6.85994 -18.13029 L -1.71499 -10.03641" />
    <path d="M -1.71499 -7.7248 L -6.85994 -15.81868 L -6.85994 -18.13029" />
    <path d="M 6.85994 -12.58113 L 6.85994 -14.89274" />
</svg>