<svg version="1.1" xmlns="http://www.w3.org/2000/svg" viewBox="-11.068466408595166 -20.531352806609043 22.136932817190328 41.062705613218085" fill="none" stroke="black" stroke-width="0.6%" vector-effect="non-scaling-stroke">
    <path d="M -6.59027 10.70163 L -2.56288 19.53135 L -2.56288 4.92024" />
    <path d="M -6.59027 10.70163 L -6.59027 -3.90948" />
    <path d="M -2.56288 19.53135 L 6.59027 15.64627 L 6.59027 7.7419" />
    <path d="M -10.06847 -11.53515 L 0 10.53916 L 0 8.69481 L 10.06847 4.42122 L 6.59027 -3.20445" />
    <path d="M 0 10.53916 L 10.06847 6.26557 L 10.06847 4.42122" />
    <path d="M -10.06847 -11.53515 L -10.06847 -13.37951 L 0 8.69481" />
    <path d="M -6.59027 -14.85584 L -10.06847 -13.37951" />
    <path d="M 6.59027 -2.00682 L -2.56288 1.87826 L -2.56288 -6.81655 L 6.59027 -10.70163 L 2.56288 -19.53135 L -6.59027 -15.64627 L -2.56288 -6.81655" />
    <path d="M -2.56288 1.87826 L -6.59027 -6.95147 L -6.59027 -15.64627" />
    <path d="M 6.59027 -2.00682 L 6.59027 -10.70163" />
</svg>