<svg version="1.1" xmlns="http://www.w3.org/2000/svg" viewBox="-16.434873687037367 -23.986617975291086 32.86974737407473 47.973235950582165" fill="none" stroke="black" stroke-width="0.6%" vector-effect="non-scaling-stroke">
    <path d="M -6.85994 14.89274 L -1.71499 22.98662 L -1.71499 10.51125" />
    <path d="M -6.85994 14.89274 L -6.85994 2.41737" />
    <path d="M -1.71499 22.98662 L 6.85994 18.13029 L 6.85994 9.32415" />
    <path d="M -15.43487 -11.07243 L 0 13.20921 L 0 10.8976 L 15.43487 2.15621 L 6.85994 -11.33359" />
    <path d="M 0 13.20921 L 15.43487 4.46782 L 15.43487 2.15621" />
    <path d="M -15.43487 -11.07243 L -15.43487 -13.38404 L 0 10.8976" />
    <path d="M 0 -22.12543 L -15.43487 -13.38404" />
    <path d="M 0.05145 -22.04449 L 0 -22.12543" />
    <path d="M 6.85994 -3.99514 L -1.71499 0.86119 L -1.71499 -10.03641 L 6.85994 -14.89274 L 1.71499 -22.98662 L -6.85994 -18.13029 L -1.71499 -10.03641" />
    <path d="M -1.71499 0.86119 L -6.85994 -7.23269 L -6.85994 -18.13029" />
    <path d="M 6.85994 -3.99514 L 6.85994 -14.89274" />
</svg>